<svg version="1.1" id="Layer_1" xmlns="http://www.w3.org/2000/svg" xmlns:xlink="http://www.w3.org/1999/xlink" x="0px" y="0px" viewBox="0 0 500 500" style="width: 137px;" xml:space="preserve" data-imageid="smartphone-data-17" imageName="Smartphone Data" class="illustrations_image">
<style type="text/css">
	.st0_smartphone-data-17{fill:#68E1FD;}
	.st1_smartphone-data-17{fill:#093F68;}
	.st2_smartphone-data-17{fill:#FFFFFF;}
	.st3_smartphone-data-17{fill:#F56132;}
	.st4_smartphone-data-17{fill:#FFBC0E;}
	.st5_smartphone-data-17{fill:#FFC9B0;}
	.st6_smartphone-data-17{fill:#725858;}
	.st7_smartphone-data-17{fill:#FFFAFA;}
</style>
<g id="device_smartphone-data-17">
	<path class="st0_smartphone-data-17 targetColor" d="M226.1,67.3h207.2c9.5,0,17.3,7.7,17.3,17.3c0,0,0,0,0,0v303.3c0,9.5-7.7,17.3-17.3,17.3c0,0,0,0,0,0H226.1&#10;&#9;&#9;c-9.5,0-17.3-7.7-17.3-17.3c0,0,0,0,0,0V84.5C208.9,75,216.6,67.4,226.1,67.3z" style="fill: rgb(104, 225, 253);"/>
	<path class="st1_smartphone-data-17" d="M431,407H228.4c-11.8,0-21.4-9.6-21.4-21.4V86.9c0-11.9,9.6-21.5,21.4-21.6h202.7c11.9,0,21.5,9.6,21.5,21.5&#10;&#9;&#9;c0,0,0,0,0,0.1v298.7C452.5,397.5,442.9,407,431,407C431,407,431,407,431,407z M228.4,69.3c-9.7,0-17.6,7.9-17.6,17.6v298.7&#10;&#9;&#9;c0,9.7,7.9,17.6,17.6,17.6h202.7c9.7,0,17.6-7.9,17.6-17.6V86.9c0-9.7-7.9-17.6-17.6-17.6H228.4z"/>
	<rect x="208.9" y="98.4" class="st2_smartphone-data-17" width="241.7" height="252.7"/>
	<path class="st1_smartphone-data-17" d="M450.5,353H208.9c-1.1,0-1.9-0.8-1.9-1.9c0,0,0,0,0,0l0,0V98.4c0-1.1,0.8-1.9,1.9-1.9c0,0,0,0,0,0h241.7&#10;&#9;&#9;c1.1,0,1.9,0.8,1.9,1.9c0,0,0,0,0,0v252.7C452.5,352.2,451.6,353,450.5,353L450.5,353z M210.8,349.1h237.8V100.3H210.8V349.1z"/>
	<path class="st1_smartphone-data-17" d="M317.9,83c-0.5,0-1-0.2-1.4-0.5c-0.2-0.2-0.3-0.4-0.4-0.7c-0.2-0.5-0.2-1,0-1.5c0.2-0.5,0.6-0.9,1.1-1.1&#10;&#9;&#9;c0.4-0.1,0.8-0.2,1.2-0.1c0.2,0.1,0.4,0.2,0.6,0.3c0.1,0.1,0.2,0.2,0.3,0.2c0.2,0.2,0.3,0.4,0.4,0.6c0.1,0.2,0.1,0.5,0.1,0.8&#10;&#9;&#9;c0,0.5-0.2,1-0.5,1.4c-0.1,0.1-0.2,0.2-0.3,0.2l-0.6,0.3H317.9z"/>
	<path class="st1_smartphone-data-17" d="M341.6,83h-15.2c-1.1-0.1-1.9-1.1-1.8-2.1c0.1-1,0.8-1.7,1.8-1.8h15.2c1.1,0.1,1.9,1,1.8,2.1&#10;&#9;&#9;C343.3,82.1,342.5,82.9,341.6,83z"/>
	<circle class="st1_smartphone-data-17" cx="329.7" cy="377.3" r="12.2"/>
</g>
<g id="files_smartphone-data-17">
	<polygon class="st0_smartphone-data-17 targetColor" points="358.9,202.8 358.9,189.9 310.1,189.9 310.1,202.8 310.1,222.8 310.1,302.8 463.3,302.8 463.3,202.8 &#9;&#10;&#9;&#9;" style="fill: rgb(104, 225, 253);"/>
	<path class="st1_smartphone-data-17" d="M463.3,304.8H310.1c-1.1,0-1.9-0.8-1.9-1.9c0,0,0,0,0,0v-113c0-1.1,0.8-1.9,1.9-1.9c0,0,0,0,0,0h48.8&#10;&#9;&#9;c1.1,0,1.9,0.8,1.9,1.9c0,0,0,0,0,0v10.9h102.4c1.1,0,1.9,0.8,1.9,1.9c0,0,0,0,0,0v100.1c0.1,1-0.7,1.9-1.7,2&#10;&#9;&#9;C463.4,304.8,463.3,304.8,463.3,304.8L463.3,304.8z M312.2,300.8h149.2v-96.1H358.9c-1.1,0-1.9-0.8-1.9-1.9c0,0,0,0,0,0l0,0v-10.9&#10;&#9;&#9;h-44.8L312.2,300.8L312.2,300.8z"/>
	<rect x="337.9" y="147.7" class="st3_smartphone-data-17" width="114.1" height="141.9"/>
	<path class="st1_smartphone-data-17" d="M451.9,291.6h-114c-1.1,0-1.9-0.8-1.9-1.9c0,0,0,0,0,0l0,0V147.7c0-1.1,0.9-1.9,1.9-1.9c0,0,0,0,0,0H452&#10;&#9;&#9;c1.1,0,1.9,0.8,1.9,1.9c0,0,0,0,0,0v141.9C453.9,290.7,453,291.6,451.9,291.6L451.9,291.6z M339.9,287.7h110.1v-138H339.8&#10;&#9;&#9;L339.9,287.7z"/>
	<rect x="326.7" y="156.6" class="st4_smartphone-data-17" width="114.1" height="125.8"/>
	<path class="st1_smartphone-data-17" d="M440.7,284.3h-114c-1.1,0-1.9-0.8-1.9-1.9c0,0,0,0,0,0l0,0V156.6c0-1.1,0.8-1.9,1.9-1.9c0,0,0,0,0,0h114.1&#10;&#9;&#9;c1.1,0,1.9,0.8,1.9,1.9c0,0,0,0,0,0v125.8C442.7,283.5,441.8,284.3,440.7,284.3C440.7,284.3,440.7,284.3,440.7,284.3L440.7,284.3z&#10;&#9;&#9; M328.6,280.5h110.1v-122H328.6V280.5z"/>
	<polygon class="st0_smartphone-data-17 targetColor" points="463.3,302.8 310.1,302.8 281.5,217.3 434.7,217.3 &#9;" style="fill: rgb(104, 225, 253);"/>
	<path class="st1_smartphone-data-17" d="M463.3,304.8H310.1c-0.8,0-1.6-0.5-1.9-1.3L279.6,218c-0.3-1,0.2-2.1,1.2-2.5c0.2-0.1,0.4-0.1,0.6-0.1h153.1&#10;&#9;&#9;c0.8,0,1.6,0.5,1.8,1.3l28.6,85.6c0.3,1-0.2,2.1-1.2,2.5C463.7,304.7,463.5,304.8,463.3,304.8L463.3,304.8z M311.6,300.8h149&#10;&#9;&#9;l-27.3-81.6h-149L311.6,300.8z"/>
	<path class="st1_smartphone-data-17" d="M346.3,236.2h-33.1c-1.1,0-1.9-0.9-1.9-1.9c0-1.1,0.9-1.9,1.9-1.9h33.1c1.1,0,1.9,0.9,1.9,1.9&#10;&#9;&#9;S347.4,236.2,346.3,236.2C346.3,236.2,346.3,236.2,346.3,236.2z"/>
	<path class="st1_smartphone-data-17" d="M422.3,177.2h-64.9c-1.1,0.3-2.2-0.4-2.4-1.5c-0.3-1.1,0.4-2.2,1.5-2.4c0.2,0,0.4-0.1,0.6,0h65.2&#10;&#9;&#9;c1.1-0.3,2.2,0.4,2.4,1.5c0.3,1.1-0.4,2.2-1.5,2.4c-0.2,0-0.4,0.1-0.6,0H422.3z"/>
	<path class="st1_smartphone-data-17" d="M422.3,191.8H345c-1.1,0.3-2.2-0.4-2.4-1.5c-0.3-1.1,0.4-2.2,1.5-2.4c0.2,0,0.4-0.1,0.6,0h77.6&#10;&#9;&#9;c1.1-0.3,2.2,0.4,2.4,1.5c0.3,1.1-0.4,2.2-1.5,2.4c-0.2,0-0.4,0.1-0.6,0H422.3z"/>
	<path class="st1_smartphone-data-17" d="M422.3,206.5H345c-1.1,0-1.9-0.9-1.9-1.9c0-1.1,0.9-1.9,1.9-1.9h77.3c1.1,0,1.9,0.9,1.9,1.9&#10;&#9;&#9;C424.2,205.7,423.4,206.5,422.3,206.5z"/>
	<circle class="st2_smartphone-data-17" cx="449.8" cy="282.4" r="27"/>
	<path class="st1_smartphone-data-17" d="M449.8,311.4c-16,0-29-13-29-29s13-29,29-29s29,13,29,29l0,0C478.8,298.4,465.8,311.4,449.8,311.4z&#10;&#9;&#9; M449.8,257.3c-13.9,0-25.1,11.2-25.1,25.1s11.2,25.1,25.1,25.1c13.9,0,25.1-11.2,25.1-25.1v0C474.9,268.5,463.7,257.3,449.8,257.3&#10;&#9;&#9;C449.9,257.3,449.8,257.3,449.8,257.3z"/>
	<path class="st1_smartphone-data-17" d="M440.7,296c-1.1,0-1.9-0.8-1.9-1.9c0,0,0,0,0,0l0,0v-20.4c0.2-1.1,1.2-1.8,2.3-1.7c0.9,0.1,1.5,0.8,1.7,1.7&#10;&#9;&#9;v20.4C442.6,295.2,441.8,296.1,440.7,296L440.7,296z"/>
	<path class="st1_smartphone-data-17" d="M447,279.6c-0.6,0-1.1-0.2-1.5-0.6l-4.8-5.4l-5.3,5.5c-0.8,0.7-2,0.7-2.8,0c-0.7-0.7-0.8-1.9,0-2.6&#10;&#9;&#9;c0,0,0,0,0,0l6.7-6.9c0.4-0.4,0.9-0.6,1.5-0.6c0.5,0,1.1,0.2,1.4,0.6l6.3,6.9c0.7,0.8,0.7,2-0.1,2.8l0,0&#10;&#9;&#9;C448,279.4,447.5,279.6,447,279.6z"/>
	<path class="st1_smartphone-data-17" d="M459.4,293.1c-1.1,0-1.9-0.8-1.9-1.9c0,0,0,0,0,0l0,0v-20.4c0-1.1,0.9-1.9,1.9-1.9s1.9,0.9,1.9,1.9&#10;&#9;&#9;c0,0,0,0,0,0v20.4C461.4,292.2,460.5,293.1,459.4,293.1C459.5,293.1,459.4,293.1,459.4,293.1z"/>
	<path class="st1_smartphone-data-17" d="M459.4,296c-0.5,0-1.1-0.2-1.4-0.6l-6.7-6.9c-0.7-0.8-0.7-2,0.1-2.8c0.8-0.6,1.9-0.6,2.7,0l5.2,5.4l4.8-5.4&#10;&#9;&#9;c0.8-0.7,2-0.7,2.8,0c0.7,0.7,0.8,1.9,0.1,2.7l-6.3,6.9C460.5,295.8,460,296.1,459.4,296z"/>
</g>
<g id="character_smartphone-data-17">
	<path class="st3_smartphone-data-17" d="M94.6,351.4c0,0-43.7,75.5-45.5,92.1s37.5,13.5,37.5,13.5L94.6,351.4z"/>
	<path class="st1_smartphone-data-17" d="M79.2,457c-8.8,0-23-1-28.9-7.1c-2.1-2.1-3.2-5.1-2.8-8.1c1.8-16.5,43.8-85.4,45.6-88.3&#10;&#9;&#9;c0.4-0.7,1.3-0.9,2.1-0.5c0.5,0.3,0.8,0.8,0.7,1.4l-7.9,100.9c-0.1,0.7-0.6,1.3-1.4,1.4C86.4,456.8,83.4,457,79.2,457z M92.5,360.5&#10;&#9;&#9;c-10.1,16.9-40.5,68.4-41.9,81.7c-0.3,2.1,0.4,4.2,1.9,5.7c6.7,6.9,27.4,6.3,32.7,6L92.5,360.5z"/>
	<g id="magnifying-glass_smartphone-data-17">
		
			<rect x="225.3" y="263.5" transform="matrix(0.3809 -0.9246 0.9246 0.3809 -103.048 384.1675)" class="st0_smartphone-data-17 targetColor" width="20.1" height="11" style="fill: rgb(104, 225, 253);"/>
		<path class="st1_smartphone-data-17" d="M225.2,276.8c-0.1-0.3-0.1-0.6,0-0.9l7.7-18.6c0.3-0.6,1-0.9,1.6-0.7l0,0l10.2,4.2c0.6,0.3,0.9,1,0.7,1.6l0,0&#10;&#9;&#9;&#9;l-7.7,18.7c-0.1,0.3-0.3,0.6-0.7,0.7c-0.3,0.1-0.6,0.1-0.9,0l-10.2-4.2C225.6,277.4,225.3,277.1,225.2,276.8z M234.8,259.3&#10;&#9;&#9;&#9;l-6.8,16.3l7.9,3.2l6.7-16.3L234.8,259.3z"/>
		
			<rect x="231.3" y="246.1" transform="matrix(0.3809 -0.9246 0.9246 0.3809 -85.9199 380.7443)" class="st0_smartphone-data-17 targetColor" width="20.1" height="16.9" style="fill: rgb(104, 225, 253);"/>
		<path class="st1_smartphone-data-17" d="M228.5,261c-0.1-0.3-0.1-0.6,0-0.9l7.7-18.6c0.3-0.6,1-0.9,1.6-0.7l0,0l15.7,6.4c0.3,0.1,0.6,0.4,0.7,0.7&#10;&#9;&#9;&#9;c0.1,0.3,0.1,0.6,0,0.9l-7.7,18.6c-0.3,0.6-1,0.9-1.6,0.7l-15.6-6.4C228.9,261.6,228.6,261.3,228.5,261L228.5,261z M238,243.6&#10;&#9;&#9;&#9;l-6.8,16.3l13.3,5.5l6.7-16.3L238,243.6z"/>
		<path class="st1_smartphone-data-17" d="M221,321l-12.1-5c-1-0.4-1.5-1.5-1.1-2.5c0,0,0,0,0,0l16.1-39.1c0.4-1,1.5-1.5,2.5-1.1c0,0,0,0,0.1,0l12.1,5&#10;&#9;&#9;&#9;c1,0.4,1.4,1.5,1,2.5c0,0,0,0,0,0l-16.1,39.1C223.1,320.9,222,321.4,221,321z"/>
		<path class="st1_smartphone-data-17" d="M207.3,315c-0.5-1.2-0.5-2.5,0-3.6l14.9-36c1-2.5,3.8-3.7,6.3-2.6l9,3.7c1.2,0.5,2.1,1.4,2.6,2.6&#10;&#9;&#9;&#9;c0.5,1.2,0.5,2.5,0,3.7l-14.9,36c-1,2.5-3.8,3.6-6.3,2.6l-9-3.7l0,0c-1.2-0.5-2.1-1.4-2.6-2.6L207.3,315z M210.5,316.6l27.4-36.5&#10;&#9;&#9;&#9;V280c-0.2-0.6-0.7-1.1-1.3-1.3l-9-3.7c-1.2-0.5-2.6,0.1-3.1,1.3l0,0l-14.9,36c-0.5,1.2,0.1,2.6,1.3,3.1l0,0l9,3.7&#10;&#9;&#9;&#9;c1.2,0.5,2.6-0.1,3.1-1.3l0,0l14.9-36c0.3-0.6,0.3-1.2,0-1.8L210.5,316.6z"/>
		<path class="st0_smartphone-data-17 targetColor" d="M292.3,235.3c8.4-20.3-1.3-43.6-21.6-51.9c-20.3-8.4-43.6,1.3-51.9,21.6c-8.4,20.3,1.3,43.5,21.6,51.9&#10;&#9;&#9;&#9;C260.6,265.3,283.9,255.7,292.3,235.3C292.3,235.3,292.3,235.3,292.3,235.3z" style="fill: rgb(104, 225, 253);"/>
		<path class="st1_smartphone-data-17" d="M217.1,234.9c-10.5-23.1-0.3-50.3,22.8-60.8s50.3-0.3,60.8,22.8s0.3,50.3-22.8,60.8&#10;&#9;&#9;&#9;c-22.7,10.3-49.5,0.7-60.4-21.8C217.4,235.5,217.2,235.2,217.1,234.9z M291.4,206.4l-0.4-1c-8.2-20.1-31.1-29.8-51.2-21.6&#10;&#9;&#9;&#9;c-20.1,8.2-29.8,31.1-21.6,51.2c8.2,20.1,31.1,29.8,51.2,21.6C289.1,248.6,298.8,226.3,291.4,206.4z"/>
		<path class="st2_smartphone-data-17" d="M282.8,220.6c0,6.4-2.3,12.6-6.4,17.6c-0.5,0.6-1,1.1-1.5,1.7c-10.6,10.8-27.9,10.9-38.7,0.2c0,0,0,0,0,0&#10;&#9;&#9;&#9;l-0.2-0.2c-0.5-0.5-1-1.1-1.5-1.7c-8.5-10.2-8.5-25,0-35.2c0.5-0.6,1-1.1,1.5-1.7c10.6-10.7,27.8-10.9,38.6-0.3&#10;&#9;&#9;&#9;c0,0,0.1,0.1,0.1,0.1l0.2,0.2c0.5,0.5,1,1.1,1.5,1.7C280.5,207.9,282.8,214.1,282.8,220.6z"/>
		<path class="st1_smartphone-data-17" d="M255.5,249.2c-7.6,0-15-3-20.3-8.5c-0.5-0.5-1.1-1.1-1.6-1.8c-8.9-10.6-8.9-26.1,0-36.7&#10;&#9;&#9;&#9;c0.5-0.6,1-1.2,1.6-1.7c11.1-11.2,29.2-11.3,40.4-0.3l0.3,0.3c0.5,0.5,1.1,1.1,1.6,1.7c8.9,10.6,8.9,26.1,0,36.7&#10;&#9;&#9;&#9;c-0.5,0.6-1,1.2-1.6,1.8C270.4,246.1,263.1,249.2,255.5,249.2z M255.5,194.5c-7,0-13.6,2.8-18.5,7.7c-0.5,0.5-0.9,1-1.4,1.6&#10;&#9;&#9;&#9;c-8.1,9.7-8.1,23.8,0,33.6l1.4,1.6c10.1,10.3,26.6,10.4,36.9,0.2c0,0,0,0,0,0l0.2-0.2c0.5-0.5,1-1,1.4-1.6&#10;&#9;&#9;&#9;c8.1-9.7,8.1-23.8,0-33.6l-1.4-1.6C269.2,197.2,262.4,194.4,255.5,194.5L255.5,194.5z"/>
	</g>
	<g id="character-2_smartphone-data-17">
		<path class="st5_smartphone-data-17" d="M170.8,217.8c15.2,27.3,26.3,12.2,29.6,7l-1.1,57.6c-0.6,28.7-23,52.2-51.6,54.2l-0.2,11.8&#10;&#9;&#9;&#9;c-0.1,5.2-4.4,9.4-9.6,9.3c-5.2-0.1-9.4-4.4-9.3-9.6l0,0l0.2-11.1c-33.6-1.9-49.4-31.1-48.9-56.8l9.7-51.1&#10;&#9;&#9;&#9;C89.5,229,111.2,246.6,170.8,217.8z"/>
		<path class="st1_smartphone-data-17" d="M141.2,359c-1.1,0.3-2.3,0.5-3.5,0.5c-6.2-0.1-11.1-5.3-11-11.5l0.2-9.4c-15.2-1.3-27.9-8.2-36.8-20.1&#10;&#9;&#9;&#9;c-8-10.6-12.3-24.6-12.1-38.5c0-0.1,0-0.2,0-0.3l9.7-51.1c0.1-0.6,0.6-1.1,1.1-1.4c0.6-0.2,1.3-0.1,1.8,0.3&#10;&#9;&#9;&#9;c0.2,0.2,21.8,16.3,79.3-11.4c0.9-0.4,1.9-0.1,2.3,0.8c5.4,9.6,10.8,14.8,15.7,15c3.7,0.1,7.4-2.6,10.9-8.1&#10;&#9;&#9;&#9;c0.5-0.8,1.6-1.1,2.5-0.5c0.5,0.3,0.8,0.9,0.8,1.5l-1.1,57.6c-0.7,28.9-22.8,52.8-51.6,55.8l-0.2,10.2&#10;&#9;&#9;&#9;C149.1,353.3,145.9,357.6,141.2,359z M81.6,280.3c-0.4,25.9,15.6,53.1,47.2,54.9c1,0.1,1.7,0.9,1.7,1.8l-0.2,11.1&#10;&#9;&#9;&#9;c-0.1,4.2,3.3,7.7,7.5,7.8c4.2,0.1,7.7-3.3,7.8-7.5l0.2-11.8c0-0.9,0.7-1.7,1.7-1.8c27.6-2,49.2-24.7,49.9-52.4l1-52.1&#10;&#9;&#9;&#9;c-3.3,3.6-6.8,5.3-10.6,5.2c-6-0.2-12-5.3-17.9-15.3c-48.7,23.1-72.1,15.5-79.2,11.8L81.6,280.3z"/>
		<path class="st6_smartphone-data-17" d="M209.4,209c-0.3,5.8-1.6,11.6-4.6,16.5s-8,8.8-13.7,9.6c-4.3,0.6-8.7-0.6-12.7-2.2c-0.8-0.4-1.6-0.5-2.5-0.4&#10;&#9;&#9;&#9;c-0.8,0.3-1.4,0.9-1.9,1.6c-4.2,5-10.4,7.8-16.9,7.7c-1.5-0.1-3-0.1-4.5,0.1c-2.1,0.6-3.8,1.9-5,3.8c-2.5,3.6-3.2,8-3.5,12.3&#10;&#9;&#9;&#9;c-0.2,2.9,1,7.5,0.2,10.1c-2.1,7.2-10-4.8-13.9-5c-3.6-0.2-7.3,2-9.5,4.8c-4.4,5.5-4.5,12.8-1.9,19.1c3,7.3,0.1,14.6-3.3,21.5&#10;&#9;&#9;&#9;c-4.8,9.5-13,22.3-24.2,14.4c-8.9-6.3-14.2-16.7-18.6-26.3c-8.3-17.8-16.1-36.6-15.3-56.2s12.7-40.1,31.7-44.7&#10;&#9;&#9;&#9;c1.8-0.3,3.6-0.9,5.2-1.8c1-0.7,1.9-1.6,2.7-2.5c10.5-11.4,20.3-14.5,35.3-16.3C157.3,172.3,211.4,172.2,209.4,209z"/>
		<path class="st1_smartphone-data-17" d="M98.5,326.9c-2.8-0.1-5.5-1-7.8-2.7c-9-6.4-14.4-16.8-19.1-26.9c-7.9-16.9-16.3-36.6-15.5-56.9&#10;&#9;&#9;&#9;c0.8-19.1,12.3-41.1,32.9-46.1l0.9-0.2c1.4-0.2,2.7-0.7,3.9-1.4c0.8-0.6,1.6-1.3,2.2-2.1l0.2-0.2c10.8-11.8,21.1-15,36.3-16.8&#10;&#9;&#9;&#9;c11.8-1.4,23.7-1.5,35.6-0.3c15.5,1.7,27,6,34.2,12.8c6.3,5.9,9.2,13.6,8.7,22.9c-0.4,6.9-2,12.6-4.8,17.2&#10;&#9;&#9;&#9;c-3.5,5.7-9,9.5-14.8,10.3c-4.9,0.6-9.8-0.9-13.5-2.2c-0.5-0.2-1-0.4-1.5-0.3c-0.4,0.3-0.7,0.6-1,1l-0.1,0.1&#10;&#9;&#9;&#9;c-4.5,5.3-11.1,8.4-18.1,8.3H156c-1-0.1-2.1-0.1-3.1,0.1c-1.7,0.5-3.1,1.7-4.1,3.2c-2.4,3.4-3,7.5-3.2,11.5c0,1.3,0,2.6,0.2,3.9&#10;&#9;&#9;&#9;c0.2,2.3,0.5,4.7,0,6.5s-1.4,2.9-2.7,3.2c-2.5,0.8-5.3-1.6-8.1-4c-1.5-1.3-3.6-3.1-4.5-3.1c-3.2-0.1-6.5,2-8.3,4.2&#10;&#9;&#9;&#9;c-3.7,4.6-4.3,11.2-1.7,17.6c3.2,7.7,0.3,15.5-3.4,22.7c-3.3,6.6-8.5,15.5-15.9,17.4C100.4,326.8,99.4,326.9,98.5,326.9z&#10;&#9;&#9;&#9; M152.1,175.5c-6.5,0-12.9,0.4-19.4,1.1c-14.8,1.7-24.2,4.6-34.4,15.8l-0.2,0.2c-0.8,1-1.7,1.8-2.8,2.6c-1.5,0.9-3.1,1.5-4.8,1.8&#10;&#9;&#9;&#9;l-0.8,0.2c-19.1,4.7-29.8,25.3-30.6,43.3c-0.8,19.6,7.4,38.9,15.2,55.5c4.6,9.7,9.7,19.7,18.2,25.7c2.8,2,5.4,2.6,8,1.9&#10;&#9;&#9;&#9;c4.6-1.2,9.2-6.3,14-15.8c3.1-6.2,6.2-13.3,3.3-20.2c-3.1-7.4-2.3-15.1,2.1-20.6c2.7-3.4,7-5.5,10.8-5.4c1.9,0.1,4,1.8,6.3,3.8&#10;&#9;&#9;&#9;c1.6,1.4,4.4,3.7,5.3,3.4c0.2,0,0.5-0.4,0.7-1.2c0.3-1.8,0.2-3.6-0.1-5.3c-0.2-1.5-0.3-3-0.2-4.5c0.3-4.2,1-9,3.8-13&#10;&#9;&#9;&#9;c1.4-2.1,3.4-3.7,5.8-4.4c1.3-0.3,2.6-0.3,3.9-0.2h1c6.1,0.1,11.8-2.6,15.7-7.2l0.1-0.1c0.6-0.9,1.5-1.6,2.5-2&#10;&#9;&#9;&#9;c1.1-0.3,2.4-0.1,3.4,0.4c3.6,1.3,7.8,2.6,12,2.1c4.9-0.6,9.6-4,12.7-8.9c2.6-4.1,4-9.4,4.4-15.8l0,0c0.5-8.4-2.1-15.3-7.8-20.6&#10;&#9;&#9;&#9;C190,178.9,170.9,175.5,152.1,175.5L152.1,175.5z"/>
		<path class="st1_smartphone-data-17" d="M121.1,457.3c-1,0-1.8-0.8-1.8-1.8l0,0V380c0-1,0.8-1.8,1.8-1.8s1.8,0.8,1.8,1.8v75.5&#10;&#9;&#9;&#9;C122.8,456.5,122,457.3,121.1,457.3z"/>
		<path class="st3_smartphone-data-17" d="M75.9,455.5l18.6-101.2l1.5-1.7c3.4-3.3,8-5.1,12.8-5.1h71.5c1.9,0,9.2-0.9,20.7,8.7&#10;&#9;&#9;&#9;c16.7,14,29.4,33.1,41.8,45l-12.9-43.7l34.7-12.2c0.3,0.8,9.4,16,18.2,34.9c16.2,34.7,12.9,48.8,8.2,57.5&#10;&#9;&#9;&#9;c-3.4,6.5-9.5,11.2-16.6,12.9c-2.1,0.5-4.2,0.8-6.4,0.8c-14.3,0-37.3-2.6-65-31c-2.1-2.2-4.2-4.3-6.2-6.5l-13.2,41.6L75.9,455.5z"/>
		<path class="st1_smartphone-data-17" d="M183.6,457.3H75.9c-0.5,0-1-0.2-1.4-0.6c-0.3-0.4-0.5-0.9-0.4-1.5L92.7,354c0.1-0.3,0.2-0.6,0.4-0.8l1.5-1.8&#10;&#9;&#9;&#9;c3.8-3.7,8.8-5.7,14.1-5.8h72c2.8-0.1,10.1-0.3,21.4,9.2c9.9,8.3,18.6,18.6,26.3,27.7c3.6,4.3,7.2,8.5,10.6,12.2l-10.9-36.8&#10;&#9;&#9;&#9;c-0.3-0.9,0.2-1.9,1.1-2.2l34.7-12.2c0.4-0.2,0.9-0.1,1.4,0.1c0.4,0.2,0.8,0.6,0.9,1c0.1,0.2,0.6,1,1.3,2.4&#10;&#9;&#9;&#9;c3,5.3,10,17.7,16.8,32.3c16.5,35.3,13,50.1,8.1,59.1c-3.7,7-10.1,12-17.8,13.8c-2.2,0.5-4.5,0.8-6.8,0.8&#10;&#9;&#9;&#9;c-15.2,0-38.7-3.3-66.2-31.5c-1.4-1.4-2.8-2.9-4.2-4.3L185.3,456C185.1,456.8,184.4,457.3,183.6,457.3z M78.1,453.7h104.2&#10;&#9;&#9;&#9;l12.7-40.4c0.3-0.9,1.3-1.5,2.3-1.2c0.3,0.1,0.5,0.3,0.7,0.5c2,2.1,4.1,4.3,6.2,6.5c26.3,27,47.8,30.5,63.7,30.5c2,0,4-0.2,6-0.7&#10;&#9;&#9;&#9;c6.6-1.6,12.3-6,15.5-12.1c4.5-8.2,7.6-22-8.2-55.8c-6.8-14.5-13.7-26.8-16.7-32.1l-0.8-1.4L232,358.7l12.5,42.1&#10;&#9;&#9;&#9;c0.3,0.9-0.2,2-1.2,2.3c-0.6,0.2-1.4,0-1.8-0.5c-5.6-5.6-10.9-11.5-15.9-17.7c-7.9-9.4-16.1-19.2-25.8-27.3&#10;&#9;&#9;&#9;c-10.2-8.6-16.6-8.4-19-8.3h-72c-4.3,0-8.4,1.7-11.5,4.6l-1.1,1.2L78.1,453.7z"/>
		<path class="st1_smartphone-data-17" d="M196.3,415.1c-0.2,0-0.5,0-0.7-0.1c-0.9-0.4-1.4-1.4-1-2.3l10.8-27.3c0.4-0.9,1.4-1.4,2.3-1&#10;&#9;&#9;&#9;c0.9,0.4,1.4,1.4,1,2.3L198,414C197.7,414.7,197.1,415.1,196.3,415.1z"/>
		<path class="st5_smartphone-data-17" d="M234.9,355.8l-14.9-34c0,0,19.1-54.1,23-48.9s4.2,43.7,4.2,43.7s1.3,9.5,15.1,29.5L234.9,355.8z"/>
		<path class="st1_smartphone-data-17" d="M234.9,357.6c-0.7,0-1.4-0.4-1.6-1.1l-14.9-34c-0.2-0.4-0.2-0.9-0.1-1.3c0.1-0.1,4.3-12.3,9.2-24.4&#10;&#9;&#9;&#9;c10.2-25.4,12.9-25.8,14.4-26c0.9-0.2,1.9,0.2,2.5,1c4,5.4,4.5,37.8,4.6,44.6c0.2,1,2.2,10.4,14.8,28.7c0.6,0.8,0.4,1.9-0.5,2.5&#10;&#9;&#9;&#9;c-0.1,0.1-0.3,0.2-0.4,0.2l-27.4,9.6C235.3,357.5,235.1,357.6,234.9,357.6z M221.9,321.8l13.9,31.8l23.7-8.3&#10;&#9;&#9;&#9;c-12.7-18.9-14.1-28-14.1-28.4c0-0.1,0-0.2,0-0.2c-0.1-13.8-1.1-36.2-3.4-41.8C238.4,278.9,229.3,301,221.9,321.8L221.9,321.8z"/>
		<path class="st5_smartphone-data-17" d="M221,322.7c-0.7-4.2-2.1-8.3-3.1-12.4s-1.5-8.5-0.3-12.7c0.4-1.6,1.8-3.4,3.3-2.9c0.6,0.3,1.1,0.7,1.5,1.3&#10;&#9;&#9;&#9;c3.1,4.3,5,9.4,6.8,14.4c0.4,1.1,0.8,2.2,1.2,3.3"/>
		<path class="st1_smartphone-data-17" d="M221,324.5c-0.9,0-1.6-0.6-1.8-1.5c-0.5-2.5-1.1-5-1.8-7.4c-0.4-1.6-0.9-3.2-1.3-4.9&#10;&#9;&#9;&#9;c-1.3-5.4-1.4-9.8-0.3-13.5c0.4-1.6,1.4-3,2.8-3.9c0.9-0.5,1.9-0.6,2.8-0.2c1,0.4,1.8,1.1,2.4,2c3.3,4.6,5.2,9.8,7,14.9l0.2,0.4&#10;&#9;&#9;&#9;l1,2.9c0.3,0.9-0.2,2-1.1,2.3s-2-0.2-2.3-1.1c-0.3-0.9-0.7-1.9-1-2.8l-0.2-0.4c-1.7-4.8-3.5-9.8-6.5-14c-0.4-0.5-0.5-0.6-0.6-0.7&#10;&#9;&#9;&#9;c-0.5,0.4-0.9,1-1.1,1.7c-0.9,3.2-0.8,6.9,0.3,11.8c0.4,1.6,0.8,3.2,1.2,4.7c0.8,2.6,1.4,5.2,1.9,7.8c0.2,1-0.5,1.9-1.5,2.1&#10;&#9;&#9;&#9;c0,0,0,0,0,0C221.2,324.5,221.1,324.5,221,324.5z"/>
	</g>
	<path class="st1_smartphone-data-17" d="M135.3,286.5c-0.3,0-0.6-0.1-0.8-0.2c-2-1.3-3.1-3.6-2.9-6c0.1-0.7,0.2-1.3,0.4-2c0.2-0.6,0.3-1.3,0.3-2&#10;&#9;&#9;c-0.1-1-1.1-2-2.1-3c-0.6-0.6-0.6-1.5,0-2.1c0.6-0.6,1.5-0.6,2.1,0c1.1,1,2.8,2.6,3,4.9c0.1,1.1-0.1,2.1-0.4,3.1&#10;&#9;&#9;c-0.2,0.5-0.3,1-0.3,1.5c-0.1,1.3,0.5,2.5,1.5,3.2c0.7,0.5,0.9,1.4,0.4,2.1C136.2,286.3,135.8,286.6,135.3,286.5L135.3,286.5z"/>
	<circle class="st1_smartphone-data-17" cx="182.5" cy="266" r="4.8"/>
	<path class="st1_smartphone-data-17" d="M193.6,250.1L193.6,250.1l-20.9,3.4c-2.1,0.3-4.1-1.1-4.5-3.2c-0.3-2.1,1.1-4.1,3.2-4.5l0,0l20.9-3.4&#10;&#9;&#9;c2.1-0.3,4.1,1.3,4.4,3.4C196.9,247.8,195.6,249.7,193.6,250.1L193.6,250.1z"/>
	<path class="st7_smartphone-data-17" d="M170,297l17.3,1.3l-9.5,15.8C177.8,314.2,165.5,311.2,170,297z"/>
	<path class="st1_smartphone-data-17" d="M177.8,315.7c-0.1,0-0.2,0-0.4,0c-3.5-1-6.4-3.2-8.2-6.3c-2-3.5-2.1-7.8-0.6-12.8c0.2-0.6,0.9-1.1,1.6-1&#10;&#9;&#9;l17.3,1.3c0.5,0,1,0.3,1.2,0.8c0.2,0.5,0.2,1,0,1.5L179,315C178.7,315.4,178.3,315.7,177.8,315.7z M171.1,298.6&#10;&#9;&#9;c-1,3.7-0.7,6.8,0.6,9.2c1.2,2.1,3.1,3.7,5.4,4.5l7.6-12.7L171.1,298.6z"/>
</g>
</svg>