<svg id="_0314_click_here" xmlns="http://www.w3.org/2000/svg" xmlns:xlink="http://www.w3.org/1999/xlink" viewBox="0 0 500 500" data-imageid="click-here-57" imageName="Click Here" class="illustrations_image" style="width: 137px;"><defs><style>.cls-1_click-here-57{fill:url(#linear-gradient);}.cls-1_click-here-57,.cls-2_click-here-57,.cls-3_click-here-57,.cls-4_click-here-57,.cls-5_click-here-57,.cls-6_click-here-57,.cls-7_click-here-57,.cls-8_click-here-57,.cls-9_click-here-57,.cls-10_click-here-57,.cls-11_click-here-57,.cls-12_click-here-57,.cls-13_click-here-57,.cls-14_click-here-57,.cls-15_click-here-57,.cls-16_click-here-57,.cls-17_click-here-57,.cls-18_click-here-57,.cls-19_click-here-57,.cls-20_click-here-57,.cls-21_click-here-57,.cls-22_click-here-57{stroke-width:0px;}.cls-2_click-here-57{isolation:isolate;opacity:.18;}.cls-2_click-here-57,.cls-22_click-here-57{fill:#68e1fd;}.cls-3_click-here-57{fill:url(#linear-gradient-11-click-here-57);}.cls-4_click-here-57{fill:url(#linear-gradient-12-click-here-57);}.cls-5_click-here-57{fill:url(#linear-gradient-13-click-here-57);}.cls-6_click-here-57{fill:url(#linear-gradient-10-click-here-57);}.cls-7_click-here-57{fill:url(#linear-gradient-16-click-here-57);}.cls-8_click-here-57{fill:url(#linear-gradient-15-click-here-57);}.cls-9_click-here-57{fill:url(#linear-gradient-14-click-here-57);}.cls-10_click-here-57{fill:url(#linear-gradient-4-click-here-57);}.cls-11_click-here-57{fill:url(#linear-gradient-2-click-here-57);}.cls-12_click-here-57{fill:url(#linear-gradient-3-click-here-57);}.cls-13_click-here-57{fill:url(#linear-gradient-8-click-here-57);}.cls-14_click-here-57{fill:url(#linear-gradient-9-click-here-57);}.cls-15_click-here-57{fill:url(#linear-gradient-7-click-here-57);}.cls-16_click-here-57{fill:url(#linear-gradient-5-click-here-57);}.cls-17_click-here-57{fill:url(#linear-gradient-6-click-here-57);}.cls-18_click-here-57{fill:#3d3d54;}.cls-19_click-here-57{fill:#2e2e3f;}.cls-20_click-here-57{fill:#c14834;}.cls-21_click-here-57{fill:#fff;}</style><linearGradient id="linear-gradient-click-here-57" x1="568.86" y1="4226.75" x2="941.12" y2="3785.13" gradientTransform="translate(-479.4 4166.29) scale(1 -1)" gradientUnits="userSpaceOnUse"><stop offset=".02" stop-color="#fff" stop-opacity="0"/><stop offset=".02" stop-color="#fff" stop-opacity=".05"/><stop offset=".03" stop-color="#fff" stop-opacity=".16"/><stop offset=".04" stop-color="#fff" stop-opacity=".24"/><stop offset=".06" stop-color="#fff" stop-opacity=".31"/><stop offset=".07" stop-color="#fff" stop-opacity=".36"/><stop offset=".1" stop-color="#fff" stop-opacity=".38"/><stop offset=".16" stop-color="#fff" stop-opacity=".39"/><stop offset=".84" stop-color="#fff" stop-opacity=".68"/><stop offset="1" stop-color="#fff"/></linearGradient><linearGradient id="linear-gradient-2-click-here-57" x1="723.22" y1="3984.76" x2="936.31" y2="3984.76" xlink:href="#linear-gradient-click-here-57"/><linearGradient id="linear-gradient-3-click-here-57" x1="700.13" y1="3873.22" x2="910.06" y2="3873.22" xlink:href="#linear-gradient-click-here-57"/><linearGradient id="linear-gradient-4-click-here-57" x1="657.48" y1="3802.71" x2="589.73" y2="3660.95" gradientTransform="translate(-479.4 4166.29) scale(1 -1)" gradientUnits="userSpaceOnUse"><stop offset="0" stop-color="#000"/><stop offset=".23" stop-color="#000" stop-opacity=".11"/><stop offset=".32" stop-color="#000" stop-opacity=".08"/><stop offset="1" stop-color="#000" stop-opacity="0"/></linearGradient><linearGradient id="linear-gradient-5-click-here-57" x1="641.85" y1="3747.02" x2="638.1" y2="3734.01" gradientTransform="translate(-479.4 4166.29) scale(1 -1)" gradientUnits="userSpaceOnUse"><stop offset="0" stop-color="#000"/><stop offset=".54" stop-color="#000" stop-opacity=".11"/><stop offset=".6" stop-color="#000" stop-opacity=".08"/><stop offset="1" stop-color="#000" stop-opacity="0"/></linearGradient><linearGradient id="linear-gradient-6-click-here-57" x1="648.28" y1="3820.31" x2="585.08" y2="3809.13" gradientTransform="translate(-479.4 4166.29) scale(1 -1)" gradientUnits="userSpaceOnUse"><stop offset="0" stop-color="#231f20" stop-opacity="0"/><stop offset="1" stop-color="#231f20"/></linearGradient><linearGradient id="linear-gradient-7-click-here-57" x1="615.69" y1="3767.2" x2="611.46" y2="3749.85" xlink:href="#linear-gradient-6-click-here-57"/><linearGradient id="linear-gradient-8-click-here-57" x1="651.54" y1="3814.34" x2="613.78" y2="3815.49" xlink:href="#linear-gradient-5-click-here-57"/><linearGradient id="linear-gradient-9-click-here-57" x1="614.47" y1="3982.33" x2="642.99" y2="3978.66" xlink:href="#linear-gradient-5-click-here-57"/><linearGradient id="linear-gradient-10-click-here-57" x1="606.92" y1="3908.16" x2="587.85" y2="3908.74" xlink:href="#linear-gradient-6-click-here-57"/><linearGradient id="linear-gradient-11-click-here-57" x1="164.62" y1="240.47" x2="-50.41" y2="323" gradientTransform="matrix(1,0,0,1,0,0)" xlink:href="#linear-gradient-6-click-here-57"/><linearGradient id="linear-gradient-12-click-here-57" x1="697.25" y1="3866.09" x2="592.92" y2="3929.11" xlink:href="#linear-gradient-6-click-here-57"/><linearGradient id="linear-gradient-13-click-here-57" x1="709.36" y1="4017.29" x2="792.61" y2="4017.29" gradientTransform="translate(-471 4173.82) scale(1 -1)" xlink:href="#linear-gradient-6-click-here-57"/><linearGradient id="linear-gradient-14-click-here-57" x1="256.76" y1="114.26" x2="351.46" y2="310.17" gradientTransform="matrix(1,0,0,1,0,0)" xlink:href="#linear-gradient-6-click-here-57"/><linearGradient id="linear-gradient-15-click-here-57" x1="276.27" y1="130.04" x2="280.61" y2="256.01" gradientTransform="matrix(1,0,0,1,0,0)" xlink:href="#linear-gradient-6-click-here-57"/><linearGradient id="linear-gradient-16-click-here-57" x1="795.64" y1="4016.87" x2="692.53" y2="3924.33" gradientTransform="translate(-471 4173.82) scale(1 -1)" xlink:href="#linear-gradient-6-click-here-57"/></defs><g id="background_click-here-57"><path class="cls-2_click-here-57 targetColor" d="M454.27,288.28c-21.5,34.01-48.94,63.8-76.5,93.13-27.21,28.96-55.4,58.12-90.69,76.37-42.49,22-92.39,26.3-139.89,20.7-55.91-6.6-123.09-26.45-128.48-93.49-1.3-16.23,1.99-32.46,2.91-48.72,2.84-49.23-29.6-107.17,20.19-142.99,27.59-19.8,67.02-18.83,92.23-41.59,18.9-17.06,25.85-44.18,43.92-62.11,12.64-12.48,29.9-19.56,47.41-22.85,23.1-4.33,46.64-2.2,69.94-3.41,24.7-1.24,49.69-2.2,74.15,2.34,18.58,3.47,36.38,10.26,52.54,20.05,9.85,5.98,18.92,13.15,27.03,21.34,21.28,21.64,35.13,50.85,36.75,81.13,1.9,35.52-12.53,70.04-31.51,100.09Z" style="fill: rgb(104, 225, 253);"/><path class="cls-22_click-here-57 targetColor" d="M454.27,288.28c-21.5,34.01-48.94,63.8-76.5,93.13h-118.42c-19.35,0-35.05-15.68-35.05-35.03h0V120.77c0-19.35,15.69-35.04,35.04-35.04,0,0,0,0,.01,0h162.66c9.85,5.98,18.92,13.15,27.03,21.34,21.28,21.64,35.13,50.85,36.75,81.13,1.9,35.52-12.53,70.04-31.51,100.09Z" style="fill: rgb(104, 225, 253);"/><path class="cls-1_click-here-57" d="M485.01,209.71c-.54,4.4-1.28,8.74-2.2,13.01-5.07,23.15-15.76,45.37-28.52,65.54-17.15,27.11-38.06,51.55-59.79,75.2-5.52,6.01-11.09,11.99-16.71,17.93h-118.44c-19.35,0-35.05-15.68-35.05-35.03h0V120.77c0-19.35,15.69-35.04,35.04-35.04,0,0,0,0,.01,0h162.66c9.85,5.98,18.92,13.15,27.03,21.34,12.97,13.18,23.01,28.96,29.44,46.3,4.17,11.18,6.63,22.92,7.3,34.83.37,7.18.12,14.38-.77,21.51Z"/><path class="cls-11_click-here-57" d="M485.01,209.71h-212.15v-56.35h205.62c4.17,11.18,6.63,22.92,7.3,34.83.37,7.18.12,14.38-.77,21.51Z"/><path class="cls-12_click-here-57" d="M482.79,222.72c-5.07,23.15-15.76,45.37-28.52,65.54-17.15,27.11-38.06,51.55-59.79,75.2h-121.62v-140.79l209.93.04Z"/></g><g id="character_click-here-57"><path class="cls-10_click-here-57" d="M114.68,406.98c-10.58-.52-23.1-.19-29.19,8.46,3.83,4.76,9.9,7.04,15.83,8.66,16.37,4.49,33.44,5.59,50.38,6.67,19.89,1.28,40.48,2.44,59.12-4.6,3.43-1.3,7.08-3.2,8.32-6.65-5.83-5.18-14.21-6.05-22-6.67-27.31-2.17-55.04-5.86-82.45-5.86Z"/><path class="cls-19_click-here-57" d="M151.21,419c0,2.2.14,4.74,1.83,6.2,1.05.78,2.3,1.26,3.61,1.37,5.6.83,11.33.05,16.5-2.27.41-.14.77-.41,1.01-.77.1-.26.15-.54.13-.82-.05-1.42-.61-2.77-1.57-3.81-1.44-1.31-3.19-2.24-5.08-2.71l-8.06-2.67c-2.2-.75-4.94-1.43-7.25-.66-1.25.42-1.1-.13-1.17,1.63-.03,1.48.05,3,.05,4.5Z"/><path class="cls-16_click-here-57" d="M151.21,419c0,2.2.14,4.74,1.83,6.2,1.05.78,2.3,1.26,3.61,1.37,5.6.83,11.33.05,16.5-2.27.41-.14.77-.41,1.01-.77.1-.26.15-.54.13-.82-.05-1.42-.61-2.77-1.57-3.81-1.44-1.31-3.19-2.24-5.08-2.71l-8.06-2.67c-2.2-.75-4.94-1.43-7.25-.66-1.25.42-1.1-.13-1.17,1.63-.03,1.48.05,3,.05,4.5Z"/><path class="cls-19_click-here-57" d="M125.43,312.96c1.83,29.76,3.7,59.95-2.43,89.09-.51,1.85-.71,3.78-.62,5.7.12,1.95,1.23,3.7,2.94,4.65,2.13.79,4.53.24,6.08-1.42,1.5-1.64,2.62-3.59,3.3-5.71,4.3-11.13,6.98-22.82,9.5-34.49,3.23-14.97,6.21-30,8.94-45.1,2.11-11.68,4.08-23.6,2.56-35.38l-18.03,1.84c-4.4.44-10.45,1.39-12.36,6.16-1.62,3.98-.14,10.55.11,14.66Z"/><path class="cls-17_click-here-57" d="M125.43,312.96c1.83,29.76,3.7,59.95-2.43,89.09-.51,1.85-.71,3.78-.62,5.7.12,1.95,1.23,3.7,2.94,4.65,2.13.79,4.53.24,6.08-1.42,1.5-1.64,2.62-3.59,3.3-5.71,4.3-11.13,6.98-22.82,9.5-34.49,3.23-14.97,6.21-30,8.94-45.1,2.11-11.68,4.08-23.6,2.56-35.38l-18.03,1.84c-4.4.44-10.45,1.39-12.36,6.16-1.62,3.98-.14,10.55.11,14.66Z"/><path class="cls-19_click-here-57" d="M121.62,415.12c-.1,1.4.26,2.8,1.01,3.98.61.69,1.36,1.23,2.2,1.58,4.24,2.01,9.02,2.55,13.6,1.53,1.26-.23,2.46-.74,3.51-1.48,1.05-.77,1.66-2,1.65-3.3-.16-1.23-.82-2.34-1.84-3.05-1.01-.69-2.08-1.27-3.21-1.74-4.14-1.97-7.7-6.3-12.32-6.94-5.03-.67-4.67,6.06-4.6,9.42Z"/><path class="cls-15_click-here-57" d="M121.62,415.12c-.1,1.4.26,2.8,1.01,3.98.61.69,1.36,1.23,2.2,1.58,4.24,2.01,9.02,2.55,13.6,1.53,1.26-.23,2.46-.74,3.51-1.48,1.05-.77,1.66-2,1.65-3.3-.16-1.23-.82-2.34-1.84-3.05-1.01-.69-2.08-1.27-3.21-1.74-4.14-1.97-7.7-6.3-12.32-6.94-5.03-.67-4.67,6.06-4.6,9.42Z"/><path class="cls-19_click-here-57" d="M174.8,337.2c-.15,8.25-.82,16.48-2.01,24.65-1.1,7.14-2.86,14.17-4.6,21.17l-7.4,30.13c-.11.78-.46,1.5-1.01,2.07-.48.33-1.02.55-1.59.64l-4.08.9c-.53.17-1.1.19-1.64.07-1.17-.41-1.4-1.91-1.42-3.15-.43-20.9,1.01-41.86-.26-62.7-.88-14.37-3.04-28.6-4.33-42.96-.35-3.94-.59-8.14,1.3-11.62,2.2-4.01,6.6-5.97,10.68-7.38,3.3-1.1,9.65-4.2,12.94-1.86,3.29,2.34,2.68,8.43,2.88,11.74.37,6.03.62,12.07.73,18.12.08,6.72.03,13.44-.16,20.18Z"/><path class="cls-13_click-here-57" d="M174.8,337.2c-.15,8.25-.82,16.48-2.01,24.65-1.1,7.14-2.86,14.17-4.6,21.17l-7.4,30.13c-.11.78-.46,1.5-1.01,2.07-.48.33-1.02.55-1.59.64l-4.08.9c-.53.17-1.1.19-1.64.07-1.17-.41-1.4-1.91-1.42-3.15-.43-20.9,1.01-41.86-.26-62.7-.88-14.37-3.04-28.6-4.33-42.96-.35-3.94-.59-8.14,1.3-11.62,2.2-4.01,6.6-5.97,10.68-7.38,3.3-1.1,9.65-4.2,12.94-1.86,3.29,2.34,2.68,8.43,2.88,11.74.37,6.03.62,12.07.73,18.12.08,6.72.03,13.44-.16,20.18Z"/><path class="cls-20_click-here-57" d="M162.57,180.1c.14,1.72.29,3.61,1.48,4.85.78.81,2,1.36,2.2,2.47.2,1.11-.82,2.2-1.42,3.19-1.35,2.36-.37,5.5-1.5,7.95-.72,1.39-1.88,2.51-3.3,3.17-1.42.66-2.89,1.21-4.4,1.65-1.4.32-2.64,1.13-3.5,2.29-1.36,2.32.52,5.5-.59,7.94-.86,1.91-3.18,2.65-5.26,2.97-1.09.23-2.21.23-3.3,0-1.61-.52-2.94-1.68-3.66-3.21-.71-1.52-1.17-3.14-1.37-4.81-.92-5.38-1.43-10.83-1.86-16.28-.24-3.08-.44-6.32.91-9.1,1.01-1.85,2.41-3.45,4.1-4.71,1.85-1.66,4.06-2.88,6.45-3.57,2.15-.39,4.36-.43,6.52-.11l3.64.34c.93-.05,1.86.02,2.77.21,1.7.67,1.96,3.32,2.08,4.75Z"/><path class="cls-18_click-here-57" d="M161.38,176.85c-.19.37-.45.69-.76.97-3.97,3.88-10.06,4.8-14.3,8.37-.28.21-.52.47-.7.76-.26.6-.34,1.25-.25,1.89.06,1.68-.06,3.36-.34,5.02-.46-.51-.74-1.15-.81-1.84-.18-.67-.57-1.4-1.25-1.46-.51,0-.97.29-1.19.75-.21.45-.33.93-.34,1.43-.17,1.01-.17,2.04,0,3.05.19,1.04.89,1.91,1.87,2.31.14.02.27.1.36.21.14.23-.12.49-.35.65l-6.14,3.93c-.22.17-.48.27-.76.3-.47,0-.8-.46-1.1-.86-1.57-2.27-2.84-4.74-3.77-7.35-.51-1.65-.75-3.37-1.23-5.02-.35-1.21-.84-2.38-1.1-3.62-.19-1.09-.24-2.2-.15-3.3.06-1.23.21-2.45.44-3.66.46-2.82,1.59-5.49,3.3-7.79,2.64-3.16,6.47-5.08,10.58-5.3,4.09-.19,8.13.93,11.55,3.18,2.17,1.26,8.16,3.86,6.46,7.39Z"/><path class="cls-14_click-here-57" d="M161.38,176.85c-.19.37-.45.69-.76.97-3.97,3.88-10.06,4.8-14.3,8.37-.28.21-.52.47-.7.76-.26.6-.34,1.25-.25,1.89.06,1.68-.06,3.36-.34,5.02-.46-.51-.74-1.15-.81-1.84-.18-.67-.57-1.4-1.25-1.46-.51,0-.97.29-1.19.75-.21.45-.33.93-.34,1.43-.17,1.01-.17,2.04,0,3.05.19,1.04.89,1.91,1.87,2.31.14.02.27.1.36.21.14.23-.12.49-.35.65l-6.14,3.93c-.22.17-.48.27-.76.3-.47,0-.8-.46-1.1-.86-1.57-2.27-2.84-4.74-3.77-7.35-.51-1.65-.75-3.37-1.23-5.02-.35-1.21-.84-2.38-1.1-3.62-.19-1.09-.24-2.2-.15-3.3.06-1.23.21-2.45.44-3.66.46-2.82,1.59-5.49,3.3-7.79,2.64-3.16,6.47-5.08,10.58-5.3,4.09-.19,8.13.93,11.55,3.18,2.17,1.26,8.16,3.86,6.46,7.39Z"/><path class="cls-20_click-here-57" d="M212.02,189.65c1.11-1.49,2.47-2.78,4-3.83,1.55-1.05,3.43-1.5,5.29-1.25-.4,2.2-3.05,3.17-4.1,5.13-.11.18-.18.38-.19.59.07.4.3.76.64,1,1.21,1.02,2.23,2.26,2.99,3.65.77,1.4.95,3.05.51,4.59-.78,1.77-2.17,3.19-3.92,4.01-1.73.81-3.36,1.82-4.84,3.02-.88.85-1.76,1.98-2.97,1.91-.74-.09-1.38-.53-1.73-1.19-.33-.64-.53-1.35-.57-2.07-.56-5.64,1.2-11.26,4.88-15.57Z"/><path class="cls-22_click-here-57 targetColor" d="M214.95,210.96c-1.31,6.41-3.59,12.58-6.75,18.31-1.02,1.99-2.3,3.84-3.81,5.5-3.49,3.57-8.58,5.21-13.57,5.5s-15.86.12-20.76-.82v.99c-.08,17.28,10.49,48.64,3.3,54.89-.66.58-5.77,1.52-12.32,2.56-9.38,1.51-21.68,3.22-28.04,4.4-2.2.42-4.91.69-6.43-.98-.12-.13-.22-.27-.33-.42-.67-1.34-1.04-2.81-1.1-4.31-.54-3.65-2.35-6.94-3.68-10.37-4.22-10.88-3.64-22.97-5.84-34.43-.82-4.34-2.06-8.6-2.66-12.98-.55-4.18-.64-8.41-.27-12.62.34-4.4,1.64-9.45,5.72-11l.16-.07h0c1.22-.41,2.62-.56,3.46-1.54,1.1-1.22.73-3.08,1.1-4.65,0-.14.08-.27.12-.42.91-2.64,4.07-4.11,6.91-3.95,2.54.15,4.47,1.37,6.74,2.33,1.83.77,3.55.51,5.5.59,5,.25,7.29-.41,11.79,1.97.66.35-.15,3.74.48,4.15,1.78,1.1,7.78.76,9.59,1.85,4.18,2.35,8.67,4.09,13.33,5.18,3.66.97,7.7,1.8,11.15.29,3.02-1.33,5.04-4.17,6.91-6.89,2.49-3.64,4.98-7.26,7.47-10.89.67-.98,1.53-2.07,2.72-2.1.72.06,1.41.32,1.99.74l4.19,2.55c1.1.54,2.04,1.37,2.71,2.4.55,1.35.63,2.84.22,4.23Z" style="fill: rgb(104, 225, 253);"/><path class="cls-22_click-here-57 targetColor" d="M126.22,300.86c-.78-.42-1.48-.98-2.07-1.64-1.86-2.07-2.88-4.77-4.67-6.92-1.21-1.46-2.75-2.64-3.84-4.19-.97-1.5-1.69-3.14-2.14-4.87-4.76-15.76-5.64-32.43-5.84-48.9-.21-3.21.11-6.42.95-9.53,1.46-4.36,4.8-7.84,9.11-9.46.26-.11.53-.19.8-.25l-.16.07c-4.08,1.54-5.38,6.6-5.72,11-.35,4.21-.24,8.44.32,12.63.6,4.4,1.84,8.63,2.66,12.98,2.2,11.46,1.62,23.55,5.84,34.43,1.33,3.43,3.15,6.72,3.68,10.37.06,1.49.43,2.95,1.09,4.29Z" style="fill: rgb(104, 225, 253);"/><path class="cls-6_click-here-57" d="M126.22,300.86c-.78-.42-1.48-.98-2.07-1.64-1.86-2.07-2.88-4.77-4.67-6.92-1.21-1.46-2.75-2.64-3.84-4.19-.97-1.5-1.69-3.14-2.14-4.87-4.76-15.76-5.64-32.43-5.84-48.9-.21-3.21.11-6.42.95-9.53,1.46-4.36,4.8-7.84,9.11-9.46.26-.11.53-.19.8-.25l-.16.07c-4.08,1.54-5.38,6.6-5.72,11-.35,4.21-.24,8.44.32,12.63.6,4.4,1.84,8.63,2.66,12.98,2.2,11.46,1.62,23.55,5.84,34.43,1.33,3.43,3.15,6.72,3.68,10.37.06,1.49.43,2.95,1.09,4.29Z"/><path class="cls-3_click-here-57" d="M149.44,227.95c-.64,4.98-2.65,9.68-4.11,14.5-5.5,18.3-3.07,38.86-11.79,55.87-.44,1.02-1.11,1.92-1.96,2.63-1.65,1.02-3.74.98-5.36-.09-.67-1.34-1.04-2.81-1.1-4.31-.54-3.65-2.35-6.94-3.68-10.37-4.22-10.88-3.64-22.97-5.84-34.43-.82-4.34-2.06-8.6-2.66-12.98-.55-4.18-.64-8.41-.27-12.62.34-4.4,1.64-9.45,5.72-11l.16-.07h0c1.22-.41,2.62-.56,3.46-1.54,1.1-1.22.73-3.08,1.1-4.65,0-.14.08-.27.12-.42-.34,4.28-2.09,11.16-2.2,12.68-.13,3.3,2.87,6.05,6.08,6.74,3.21.69,6.53-.19,9.67-1.2,5.06-1.46,9.68-4.16,13.44-7.84.57,2.58-.43,6.39-.78,9.1Z"/><path class="cls-4_click-here-57" d="M173.34,295.26c-.66.58-5.77,1.52-12.32,2.56.49-3.57,2.34-6.86,3.41-10.33,1.65-5.38,1.41-11.15.8-16.75-1.19-10.82-3.67-21.46-5.27-32.23-.1-.63,7.4,1.1,10.1.87-.08,17.28,10.53,49.63,3.28,55.88Z"/></g><g id="button_click-here-57"><rect class="cls-5_click-here-57" x="238.36" y="135.53" width="83.24" height="42.01" rx="11.13" ry="11.13"/><polygon class="cls-22_click-here-57 targetColor" points="206.95 105.37 226.61 126.18 230.07 123.58 218.81 97.28 206.95 105.37" style="fill: rgb(104, 225, 253);"/><polygon class="cls-22_click-here-57 targetColor" points="239.32 89.47 244.24 118.95 248.87 118.66 252.33 86.88 239.32 89.47" style="fill: rgb(104, 225, 253);"/><polygon class="cls-22_click-here-57 targetColor" points="194.53 130.81 222.56 136.3 222.56 142.94 193.37 143.24 194.53 130.81" style="fill: rgb(104, 225, 253);"/><rect class="cls-22_click-here-57 targetColor" x="235.57" y="135.53" width="83.24" height="42.01" rx="11.13" ry="11.13" style="fill: rgb(104, 225, 253);"/><rect class="cls-9_click-here-57" x="235.57" y="135.53" width="83.24" height="42.01" rx="11.13" ry="11.13"/><rect class="cls-8_click-here-57" x="235.57" y="145.5" width="83.24" height="22.59"/><polygon class="cls-7_click-here-57" points="275.45 160.09 271.12 160.38 280.94 198.53 285.28 198.24 294.53 188.99 305.8 212.41 310.13 212.11 319.96 205.76 300.88 184.95 314.18 177.43 275.45 160.09"/><polygon class="cls-21_click-here-57" points="271.12 160.38 280.94 198.53 290.19 189.28 305.8 212.41 315.62 206.04 296.55 185.23 309.85 177.72 271.12 160.38"/></g></svg>